<?xml version="1.0" standalone="no"?>
<!DOCTYPE svg PUBLIC "-//W3C//DTD SVG 20010904//EN"
 "http://www.w3.org/TR/2001/REC-SVG-20010904/DTD/svg10.dtd">
<svg version="1.0" xmlns="http://www.w3.org/2000/svg"
 width="16.000000pt" height="16.000000pt" viewBox="0 0 16.000000 16.000000"
 preserveAspectRatio="xMidYMid meet">
<metadata>
Created by potrace 1.16, written by Peter Selinger 2001-2019
</metadata>
<g transform="translate(0.000000,16.000000) scale(0.100000,-0.100000)"
fill="#000000" stroke="none">
<path d="M0 80 l0 -80 31 0 c16 0 28 4 24 9 -3 5 -1 12 5 16 5 3 10 17 10 31
0 14 4 22 10 19 6 -4 10 12 10 42 0 35 -3 44 -10 33 -6 -10 -10 -11 -10 -2 0
7 -14 12 -35 12 l-35 0 0 -80z"/>
<path d="M138 153 c29 -11 4 -132 -30 -146 -7 -3 2 -6 20 -6 l32 -1 0 80 c0
70 -2 80 -17 79 -11 0 -13 -3 -5 -6z"/>
</g>
</svg>
